<svg width="16" height="16" viewBox="0 0 16 16" fill="none" xmlns="http://www.w3.org/2000/svg">
<path fill-rule="evenodd" clip-rule="evenodd" d="M7.84521 4.39384C7.87353 4.4625 7.88797 4.53607 7.88772 4.61033C7.88797 4.68459 7.87353 4.75817 7.84521 4.82682C7.8169 4.89548 7.77528 4.95784 7.72275 5.01033C7.61617 5.1155 7.47247 5.17446 7.32275 5.17446C7.17302 5.17446 7.02932 5.1155 6.92275 5.01033L5.17595 3.25671V11.8418C5.17595 11.9916 5.11643 12.1353 5.01048 12.2413C4.90452 12.3472 4.76082 12.4068 4.61098 12.4068C4.46114 12.4068 4.31744 12.3472 4.21149 12.2413C4.10553 12.1353 4.04601 11.9916 4.04601 11.8418V3.25651L2.29902 5.01033C2.19293 5.11642 2.04905 5.17602 1.89902 5.17602C1.74899 5.17602 1.60511 5.11642 1.49902 5.01033C1.39293 4.90425 1.33334 4.76036 1.33334 4.61033C1.33334 4.4603 1.39293 4.31642 1.49902 4.21033L4.21088 1.49847C4.23566 1.47402 4.26245 1.45207 4.29085 1.43277L7.84521 4.39384ZM11.9555 12.7435V4.15819C11.9555 4.00835 11.8959 3.86465 11.79 3.75869C11.684 3.65274 11.5403 3.59322 11.3905 3.59322C11.2407 3.59322 11.097 3.65274 10.991 3.75869C10.885 3.86465 10.8255 4.00835 10.8255 4.15819V12.7437L9.07853 10.9899C8.97245 10.8838 8.82856 10.8242 8.67853 10.8242C8.52851 10.8242 8.38462 10.8838 8.27853 10.9899C8.17245 11.096 8.11285 11.2399 8.11285 11.3899C8.11285 11.5399 8.17245 11.6838 8.27853 11.7899L10.9904 14.5017C11.0243 14.5352 11.062 14.564 11.1024 14.5877C11.1889 14.6389 11.2882 14.6667 11.3905 14.6667C11.4999 14.6667 11.606 14.6349 11.6965 14.5766C11.7301 14.5552 11.7616 14.5302 11.7904 14.5017L14.5023 11.7899C14.5548 11.7374 14.5964 11.675 14.6247 11.6064C14.653 11.5377 14.6675 11.4641 14.6672 11.3899C14.6675 11.3156 14.653 11.242 14.6247 11.1734C14.5964 11.1047 14.5548 11.0424 14.5023 10.9899C14.3957 10.8847 14.252 10.8258 14.1023 10.8258C13.9525 10.8258 13.8088 10.8847 13.7023 10.9899L11.9555 12.7435Z" fill="white"/>
</svg>
