<svg width="13" height="13" viewBox="0 0 13 13" fill="none" xmlns="http://www.w3.org/2000/svg">
<path d="M5.66667 11C6.89733 11 8.02867 10.5766 8.93133 9.87465L11.862 12.8053L12.8047 11.8626L9.874 8.93198C10.5767 8.02865 11 6.89731 11 5.66665C11 2.72598 8.60733 0.333313 5.66667 0.333313C2.726 0.333313 0.333332 2.72598 0.333332 5.66665C0.333332 8.60731 2.726 11 5.66667 11ZM5.66667 1.66665C7.87267 1.66665 9.66667 3.46065 9.66667 5.66665C9.66667 7.87265 7.87267 9.66665 5.66667 9.66665C3.46067 9.66665 1.66667 7.87265 1.66667 5.66665C1.66667 3.46065 3.46067 1.66665 5.66667 1.66665Z" fill="#6C7180"/>
</svg>
