<svg width="24" height="25" viewBox="0 0 24 25" fill="none" xmlns="http://www.w3.org/2000/svg">
<path d="M1 1.0766V14.5066H11.67V1.0766H1ZM2.39 13.0766V2.4666H10.27V13.0766H2.39Z" fill="white"/>
<path d="M11.67 15.6666V23.0766H10.27V17.0666H2.4V23.0766H1V15.6666H11.67Z" fill="white"/>
<path d="M23 1.0766V7.1666C23 7.51669 22.8609 7.85243 22.6134 8.09998C22.3658 8.34753 22.0301 8.4866 21.68 8.4866H13.68C13.3299 8.4866 12.9942 8.34753 12.7466 8.09998C12.4991 7.85243 12.36 7.51669 12.36 7.1666V1.0766H13.76V7.0766H21.64V1.0766H23Z" fill="white"/>
<path d="M12.33 10.9966V21.7266C12.33 22.0846 12.4722 22.428 12.7254 22.6812C12.9786 22.9344 13.322 23.0766 13.68 23.0766H21.68C22.032 23.0663 22.3662 22.9198 22.6124 22.668C22.8586 22.4162 22.9976 22.0787 23 21.7266V10.9966C23 10.6386 22.8578 10.2952 22.6046 10.042C22.3514 9.78884 22.008 9.64661 21.65 9.64661H13.65C13.2963 9.65188 12.9591 9.79675 12.7118 10.0496C12.4646 10.3025 12.3273 10.6429 12.33 10.9966ZM13.73 21.6866V11.0766H21.61V21.6866H13.73Z" fill="white"/>
</svg>
