<svg width="22" height="22" viewBox="0 0 22 22" fill="none" xmlns="http://www.w3.org/2000/svg">
<path d="M18.09 14.2695C17.1067 13.2998 15.9455 12.5291 14.67 11.9995C15.7796 11.149 16.5949 9.97213 17.0012 8.63437C17.4076 7.29661 17.3846 5.86516 16.9355 4.54113C16.4864 3.2171 15.6338 2.06704 14.4974 1.25254C13.3611 0.438026 11.9981 0 10.6 0C9.20189 0 7.83891 0.438026 6.70256 1.25254C5.5662 2.06704 4.71359 3.2171 4.26451 4.54113C3.81543 5.86516 3.79244 7.29661 4.19879 8.63437C4.60513 9.97213 5.42038 11.149 6.53 11.9995C5.25209 12.538 4.09067 13.3191 3.11 14.2995C2.12451 15.2759 1.34226 16.4379 0.808461 17.7183C0.274658 18.9988 -0.000121278 20.3723 4.01551e-08 21.7595V21.9995H2.22V21.7595C2.22 19.537 3.10289 17.4055 4.67445 15.834C6.246 14.2624 8.37749 13.3795 10.6 13.3795C12.8225 13.3795 14.954 14.2624 16.5256 15.834C18.0971 17.4055 18.98 19.537 18.98 21.7595V21.9995H21.2V21.7595C21.2041 20.3672 20.9312 18.988 20.3973 17.7022C19.8634 16.4163 19.0791 15.2495 18.09 14.2695ZM6.09 6.67954C6.09003 5.79717 6.35122 4.93454 6.84064 4.20035C7.33007 3.46615 8.02584 2.89323 8.84029 2.55376C9.65475 2.21429 10.5515 2.12347 11.4174 2.29273C12.2834 2.46199 13.08 2.88376 13.7067 3.5049C14.3334 4.12605 14.7622 4.91878 14.9392 5.78322C15.1161 6.64767 15.0333 7.54515 14.7011 8.3626C14.3689 9.18005 13.8022 9.8809 13.0724 10.3768C12.3426 10.8728 11.4823 11.1416 10.6 11.1495C9.41448 11.1495 8.27752 10.6786 7.43923 9.84031C6.60094 9.00202 6.13 7.86506 6.13 6.67954H6.09Z" fill="white"/>
</svg>
