<svg width="20" height="21" viewBox="0 0 20 21" fill="none" xmlns="http://www.w3.org/2000/svg">
<path fill-rule="evenodd" clip-rule="evenodd" d="M1 12.0766C1.55228 12.0766 2 12.5243 2 13.0766V17.0766C2 17.3418 2.10536 17.5962 2.29289 17.7837C2.48043 17.9712 2.73478 18.0766 3 18.0766H17C17.2652 18.0766 17.5196 17.9712 17.7071 17.7837C17.8946 17.5962 18 17.3418 18 17.0766V13.0766C18 12.5243 18.4477 12.0766 19 12.0766C19.5523 12.0766 20 12.5243 20 13.0766V17.0766C20 17.8722 19.6839 18.6353 19.1213 19.1979C18.5587 19.7605 17.7957 20.0766 17 20.0766H3C2.20435 20.0766 1.44129 19.7605 0.87868 19.1979C0.31607 18.6353 0 17.8722 0 17.0766V13.0766C0 12.5243 0.447715 12.0766 1 12.0766Z" fill="white"/>
<path fill-rule="evenodd" clip-rule="evenodd" d="M9.29289 0.369492C9.68342 -0.021032 10.3166 -0.021032 10.7071 0.369492L15.7071 5.36949C16.0976 5.76002 16.0976 6.39318 15.7071 6.78371C15.3166 7.17423 14.6834 7.17423 14.2929 6.78371L10 2.49081L5.70711 6.78371C5.31658 7.17423 4.68342 7.17423 4.29289 6.78371C3.90237 6.39318 3.90237 5.76002 4.29289 5.36949L9.29289 0.369492Z" fill="white"/>
<path fill-rule="evenodd" clip-rule="evenodd" d="M10 0.0765991C10.5523 0.0765991 11 0.524314 11 1.0766V13.0766C11 13.6289 10.5523 14.0766 10 14.0766C9.44771 14.0766 9 13.6289 9 13.0766V1.0766C9 0.524314 9.44771 0.0765991 10 0.0765991Z" fill="white"/>
</svg>
