<svg width="24" height="25" viewBox="0 0 24 25" fill="none" xmlns="http://www.w3.org/2000/svg">
<path fill-rule="evenodd" clip-rule="evenodd" d="M17.4092 11.8444C17.3062 11.8869 17.1959 11.9086 17.0845 11.9082C16.9731 11.9086 16.8627 11.8869 16.7598 11.8444C16.6568 11.8019 16.5632 11.7395 16.4845 11.6607C16.3267 11.5009 16.2383 11.2853 16.2383 11.0607C16.2383 10.8361 16.3267 10.6206 16.4845 10.4607L19.1149 7.84052H6.2373C6.01254 7.84052 5.79698 7.75124 5.63805 7.59231C5.47912 7.43338 5.38984 7.21783 5.38984 6.99307C5.38984 6.76831 5.47912 6.55275 5.63805 6.39382C5.79698 6.2349 6.01254 6.14561 6.2373 6.14561H19.1152L16.4845 3.52513C16.3254 3.366 16.236 3.15017 16.236 2.92513C16.236 2.70008 16.3254 2.48426 16.4845 2.32513C16.6436 2.166 16.8594 2.0766 17.0845 2.0766C17.3095 2.0766 17.5254 2.166 17.6845 2.32513L21.7523 6.39292C21.7892 6.43031 21.8223 6.47074 21.8513 6.51363C21.9475 6.65377 22 6.82071 22 6.99307C22 7.17549 21.9412 7.35184 21.8341 7.49678C21.8094 7.5306 21.7821 7.56275 21.7523 7.59292L17.6845 11.6607C17.6058 11.7395 17.5122 11.8019 17.4092 11.8444ZM4.88473 18.0098H17.7627C17.9875 18.0098 18.203 17.9205 18.362 17.7616C18.5209 17.6027 18.6102 17.3871 18.6102 17.1623C18.6102 16.9376 18.5209 16.722 18.362 16.5631C18.203 16.4042 17.9875 16.3149 17.7627 16.3149H4.88443L7.51517 13.6944C7.6743 13.5353 7.76369 13.3194 7.76369 13.0944C7.76369 12.8694 7.6743 12.6535 7.51517 12.4944C7.35604 12.3353 7.14021 12.2459 6.91517 12.2459C6.69012 12.2459 6.4743 12.3353 6.31517 12.4944L2.24737 16.5622C2.19723 16.613 2.15409 16.6694 2.11857 16.73C2.04161 16.8598 2 17.0089 2 17.1623C2 17.3264 2.04758 17.4856 2.13509 17.6214C2.16721 17.6718 2.20476 17.719 2.24737 17.7622L6.31517 21.83C6.3939 21.9088 6.48745 21.9712 6.59043 22.0137C6.69341 22.0562 6.80377 22.0778 6.91517 22.0774C7.02656 22.0778 7.13692 22.0562 7.2399 22.0137C7.34288 21.9712 7.43643 21.9088 7.51517 21.83C7.67291 21.6701 7.76136 21.4546 7.76136 21.23C7.76136 21.0054 7.67291 20.7898 7.51517 20.63L4.88473 18.0098Z" fill="white"/>
</svg>
