<svg width="18" height="23" viewBox="0 0 18 23" fill="none" xmlns="http://www.w3.org/2000/svg">
<path fill-rule="evenodd" clip-rule="evenodd" d="M0.87868 0.955279C1.44129 0.392669 2.20435 0.0765991 3 0.0765991H11C11.2652 0.0765991 11.5196 0.181956 11.7071 0.369492L17.7071 6.36949C17.8946 6.55703 18 6.81138 18 7.0766V19.0766C18 19.8722 17.6839 20.6353 17.1213 21.1979C16.5587 21.7605 15.7957 22.0766 15 22.0766H3C2.20435 22.0766 1.44129 21.7605 0.87868 21.1979C0.31607 20.6353 0 19.8722 0 19.0766V3.0766C0 2.28095 0.31607 1.51789 0.87868 0.955279ZM3 2.0766C2.73478 2.0766 2.48043 2.18196 2.29289 2.36949C2.10536 2.55703 2 2.81138 2 3.0766V19.0766C2 19.3418 2.10536 19.5962 2.29289 19.7837C2.48043 19.9712 2.73478 20.0766 3 20.0766H15C15.2652 20.0766 15.5196 19.9712 15.7071 19.7837C15.8946 19.5962 16 19.3418 16 19.0766V7.49081L10.5858 2.0766H3Z" fill="white"/>
<path fill-rule="evenodd" clip-rule="evenodd" d="M11 0.0765991C11.5523 0.0765991 12 0.524314 12 1.0766V6.0766H17C17.5523 6.0766 18 6.52431 18 7.0766C18 7.62888 17.5523 8.0766 17 8.0766H11C10.4477 8.0766 10 7.62888 10 7.0766V1.0766C10 0.524314 10.4477 0.0765991 11 0.0765991Z" fill="white"/>
<path fill-rule="evenodd" clip-rule="evenodd" d="M4 12.0766C4 11.5243 4.44772 11.0766 5 11.0766H13C13.5523 11.0766 14 11.5243 14 12.0766C14 12.6289 13.5523 13.0766 13 13.0766H5C4.44772 13.0766 4 12.6289 4 12.0766Z" fill="white"/>
<path fill-rule="evenodd" clip-rule="evenodd" d="M4 16.0766C4 15.5243 4.44772 15.0766 5 15.0766H13C13.5523 15.0766 14 15.5243 14 16.0766C14 16.6289 13.5523 17.0766 13 17.0766H5C4.44772 17.0766 4 16.6289 4 16.0766Z" fill="white"/>
<path fill-rule="evenodd" clip-rule="evenodd" d="M4 8.0766C4 7.52431 4.44772 7.0766 5 7.0766H7C7.55228 7.0766 8 7.52431 8 8.0766C8 8.62888 7.55228 9.0766 7 9.0766H5C4.44772 9.0766 4 8.62888 4 8.0766Z" fill="white"/>
</svg>
