<svg width="21" height="22" viewBox="0 0 21 22" fill="none" xmlns="http://www.w3.org/2000/svg">
<path d="M10 0C7.87827 0 5.84404 0.84345 4.34375 2.34375C2.84346 3.84404 2 5.87827 2 8V13C2 13.5304 1.78914 14.039 1.41406 14.4141C1.03899 14.7892 0.53043 15 0 15V17H20C20.5523 17 21 16.5523 21 16C21 15.4477 20.5523 15 20 15C19.4696 15 18.961 14.7892 18.5859 14.4141C18.2108 14.039 18 13.5304 18 13V8C18 5.87827 17.1565 3.84404 15.6562 2.34375C14.1559 0.84345 12.1217 0 10 0ZM10 2C12.2866 2.03868 13.6033 3.16241 14.2637 3.75781C15.3011 4.87636 16.0218 6.26474 15.998 7.98828L16 12.9922C16.0234 13.7898 16.2102 14.4517 16.5352 15H3.46484C3.76847 14.5108 3.97811 13.8901 3.99219 12.9922V7.98828C4.05753 6.62495 4.31218 5.24537 5.75781 3.75781C7.02947 2.47614 8.47291 2.03391 10 2ZM11.7598 19C11.405 18.9901 11.0557 19.1696 10.8652 19.498C10.7773 19.6496 10.6518 19.7759 10.5 19.8633C10.3482 19.9507 10.1752 19.9961 10 19.9961C9.8248 19.9961 9.6518 19.9507 9.5 19.8633C9.3482 19.7759 9.22267 19.6496 9.13477 19.498C8.96158 19.1995 8.65816 19.0239 8.33789 19.002C8.14573 18.9888 7.94674 19.0309 7.76758 19.1348C7.28985 19.4119 7.12718 20.0242 7.4043 20.502C7.66802 20.9566 8.04645 21.3333 8.50195 21.5957C8.95735 21.858 9.4744 21.9961 10 21.9961C10.5256 21.9961 11.0426 21.858 11.498 21.5957C11.9535 21.3333 12.332 20.9566 12.5957 20.502C12.8728 20.0242 12.7101 19.4119 12.2324 19.1348C12.0831 19.0482 11.921 19.0045 11.7598 19Z" fill="white"/>
</svg>
