<svg width="14" height="18" viewBox="0 0 14 18" fill="none" xmlns="http://www.w3.org/2000/svg">
<path fill-rule="evenodd" clip-rule="evenodd" d="M0.999002 1.33234C1.42522 0.906119 2.0033 0.666672 2.60606 0.666672H8.66667C8.86759 0.666672 9.06028 0.746488 9.20236 0.888561L13.7478 5.43402C13.8899 5.57609 13.9697 5.76878 13.9697 5.9697V15.0606C13.9697 15.6634 13.7303 16.2415 13.304 16.6677C12.8778 17.0939 12.2997 17.3333 11.697 17.3333H2.60606C2.0033 17.3333 1.42522 17.0939 0.999002 16.6677C0.572783 16.2415 0.333336 15.6634 0.333336 15.0606V2.9394C0.333336 2.33663 0.572783 1.75856 0.999002 1.33234ZM2.60606 2.18182C2.40514 2.18182 2.21245 2.26164 2.07038 2.40371C1.9283 2.54579 1.84849 2.73848 1.84849 2.9394V15.0606C1.84849 15.2615 1.9283 15.4542 2.07038 15.5963C2.21245 15.7384 2.40514 15.8182 2.60606 15.8182H11.697C11.8979 15.8182 12.0906 15.7384 12.2327 15.5963C12.3747 15.4542 12.4545 15.2615 12.4545 15.0606V6.2835L8.35287 2.18182H2.60606Z" fill="white"/>
<path fill-rule="evenodd" clip-rule="evenodd" d="M8.66667 0.666672C9.08507 0.666672 9.42424 1.00585 9.42424 1.42425V5.21213H13.2121C13.6305 5.21213 13.9697 5.5513 13.9697 5.9697C13.9697 6.3881 13.6305 6.72728 13.2121 6.72728H8.66667C8.24827 6.72728 7.90909 6.3881 7.90909 5.9697V1.42425C7.90909 1.00585 8.24827 0.666672 8.66667 0.666672Z" fill="white"/>
<path fill-rule="evenodd" clip-rule="evenodd" d="M3.36364 9.75758C3.36364 9.33918 3.70282 9.00001 4.12121 9.00001H10.1818C10.6002 9.00001 10.9394 9.33918 10.9394 9.75758C10.9394 10.176 10.6002 10.5152 10.1818 10.5152H4.12121C3.70282 10.5152 3.36364 10.176 3.36364 9.75758Z" fill="white"/>
<path fill-rule="evenodd" clip-rule="evenodd" d="M3.36364 12.7879C3.36364 12.3695 3.70282 12.0303 4.12121 12.0303H10.1818C10.6002 12.0303 10.9394 12.3695 10.9394 12.7879C10.9394 13.2063 10.6002 13.5455 10.1818 13.5455H4.12121C3.70282 13.5455 3.36364 13.2063 3.36364 12.7879Z" fill="white"/>
<path fill-rule="evenodd" clip-rule="evenodd" d="M3.36364 6.72728C3.36364 6.30888 3.70282 5.9697 4.12121 5.9697H5.63637C6.05476 5.9697 6.39394 6.30888 6.39394 6.72728C6.39394 7.14568 6.05476 7.48485 5.63637 7.48485H4.12121C3.70282 7.48485 3.36364 7.14568 3.36364 6.72728Z" fill="white"/>
</svg>
