<svg width="20" height="20" viewBox="0 0 20 20" fill="none" xmlns="http://www.w3.org/2000/svg">
<path d="M15.5279 15.2821C14.7513 15.2821 14.021 14.9779 13.472 14.4257L10.5033 11.4392C10.2949 11.229 9.93158 11.2296 9.72324 11.4392L6.74372 14.4367C6.19457 14.9888 5.46426 15.2929 4.68768 15.2929H4.10269L7.86251 19.0755C9.03678 20.2568 10.9406 20.2568 12.1149 19.0755L15.8856 15.2821H15.5279Z" fill="white"/>
<path d="M4.68774 4.7181C5.46432 4.7181 6.19463 5.02238 6.74369 5.57456L9.72321 8.57249C9.93779 8.78836 10.2882 8.7893 10.5033 8.57221L13.4719 5.58542C14.0211 5.03324 14.7514 4.72906 15.528 4.72906H15.8856L12.1149 0.935726C10.9407 -0.245616 9.03684 -0.245616 7.86257 0.935726L4.10284 4.7181H4.68774Z" fill="white"/>
<path d="M19.0043 7.86666L16.7257 5.57431C16.6755 5.59453 16.6212 5.60718 16.5639 5.60718H15.528C14.9923 5.60718 14.468 5.82567 14.0896 6.20665L11.1209 9.19325C10.8432 9.47272 10.4782 9.61263 10.1134 9.61263C9.7484 9.61263 9.38367 9.47272 9.10588 9.19354L6.12608 6.19579C5.74757 5.81481 5.22337 5.59631 4.68771 5.59631H3.41383C3.35956 5.59631 3.30873 5.58339 3.26079 5.56522L0.973139 7.86666C-0.201129 9.0479 -0.201129 10.9632 0.973139 12.1446L3.2607 14.446C3.30864 14.4278 3.35956 14.4149 3.41383 14.4149H4.68771C5.22337 14.4149 5.74757 14.1964 6.12608 13.8154L9.1056 10.818C9.64414 10.2766 10.5829 10.2764 11.1209 10.8182L14.0896 13.8045C14.468 14.1855 14.9923 14.404 15.528 14.404H16.5639C16.6213 14.404 16.6755 14.4166 16.7258 14.4368L19.0043 12.1446C20.1786 10.9632 20.1786 9.0479 19.0043 7.86666Z" fill="white"/>
</svg>
