<svg width="20" height="15" viewBox="0 0 20 15" fill="none" xmlns="http://www.w3.org/2000/svg">
<path d="M19.4112 1.36855C18.1991 0.860109 16.9859 0.666672 15.7734 0.666672C11.9244 0.666359 8.07562 2.6148 4.22656 2.6148C3.26125 2.6148 2.29656 2.4923 1.33125 2.18605C1.22281 2.15167 1.11406 2.13542 1.00781 2.13542C0.47 2.13542 0 2.55167 0 3.12948V13.0439C0 13.4385 0.225937 13.8126 0.58875 13.9645C1.80094 14.4732 3.01406 14.6667 4.22656 14.6667C8.07562 14.6667 11.9247 12.7182 15.7737 12.7182C16.7391 12.7182 17.7037 12.8407 18.6691 13.147C18.7775 13.1814 18.8862 13.1976 18.9925 13.1976C19.5303 13.1976 20.0003 12.7814 20.0003 12.2035V2.28948C20 1.89448 19.7741 1.52073 19.4112 1.36855V1.36855ZM1.5 3.79855C2.12875 3.95605 2.785 4.03511 3.46 4.07761C3.27625 4.99605 2.46875 5.68823 1.5 5.68823V3.79855ZM1.5 12.7048V11.2117C2.57406 11.2117 3.44312 12.0639 3.49094 13.1304C2.78687 13.0739 2.12875 12.9332 1.5 12.7048V12.7048ZM10 10.6667C8.61906 10.6667 7.5 9.32323 7.5 7.66667C7.5 6.0098 8.61937 4.66667 10 4.66667C11.3806 4.66667 12.5 6.0098 12.5 7.66667C12.5 9.32386 11.3803 10.6667 10 10.6667ZM18.5 11.5348C17.9525 11.3976 17.3841 11.3207 16.8025 11.271C16.9859 10.456 17.6619 9.8373 18.5 9.73105V11.5348ZM18.5 4.15636C17.5347 4.03417 16.7856 3.22823 16.7559 2.23292C17.3666 2.30073 17.9462 2.42761 18.5 2.62855V4.15636Z" fill="white"/>
</svg>
