<svg width="48" height="48" viewBox="0 0 48 48" fill="none" xmlns="http://www.w3.org/2000/svg">
<rect width="48" height="48" rx="24" fill="#252525"/>
<path d="M24.88 13H23.12V35H24.88V13Z" fill="white"/>
<path d="M30.63 19.8C30.6368 19.9282 30.6172 20.0565 30.5725 20.1769C30.5278 20.2973 30.4588 20.4072 30.37 20.5C30.1875 20.6603 29.9529 20.7487 29.71 20.7487C29.4671 20.7487 29.2325 20.6603 29.05 20.5C28.9615 20.4143 28.8911 20.3117 28.843 20.1984C28.7949 20.085 28.7701 19.9631 28.77 19.84C28.797 19.5307 28.7545 19.2192 28.6454 18.9285C28.5364 18.6378 28.3637 18.3752 28.14 18.16C27.6796 17.6497 27.0827 17.2819 26.42 17.1C24.8369 16.658 23.163 16.658 21.58 17.1C20.9173 17.2769 20.3112 17.6212 19.82 18.1C19.6064 18.3127 19.4393 18.5673 19.3291 18.8479C19.219 19.1284 19.1682 19.4288 19.18 19.73C19.1656 20.0295 19.2113 20.3289 19.3144 20.6105C19.4174 20.8922 19.5757 21.1504 19.78 21.37C20.2843 21.8363 20.8903 22.1787 21.55 22.37C21.79 22.44 22.05 22.53 22.33 22.6L22.51 22.66V24.49L22.21 24.41L21.29 24.17C20.5647 23.9583 19.8717 23.6487 19.23 23.25C18.6528 22.8871 18.1724 22.3895 17.83 21.8C17.4848 21.1657 17.3124 20.4519 17.33 19.73C17.3021 18.7664 17.6376 17.8276 18.27 17.1C18.938 16.3864 19.7731 15.8503 20.7 15.54C21.7608 15.1719 22.8771 14.9892 24 15C25.121 14.9915 26.2359 15.1672 27.3 15.52C28.2376 15.8416 29.0682 16.4161 29.7 17.18C30.3425 17.897 30.6767 18.8383 30.63 19.8Z" fill="white"/>
<path d="M31 28.14C31.018 28.8721 30.8347 29.595 30.47 30.23C30.1005 30.8467 29.5941 31.3702 28.99 31.76C28.314 32.1889 27.5701 32.4999 26.79 32.68C25.8771 32.9031 24.9398 33.0106 24 33C23.0497 33.0123 22.1018 32.9014 21.18 32.67C20.403 32.4896 19.6646 32.1712 19 31.73C18.4183 31.3303 17.9387 30.7993 17.6 30.18C17.2584 29.5416 17.0668 28.8336 17.04 28.11V27.11H18.92V27.72C18.92 27.81 18.92 27.91 18.92 28.01C18.9264 28.4806 19.0517 28.9419 19.2842 29.351C19.5167 29.7601 19.849 30.1038 20.25 30.35C21.386 30.9872 22.6794 31.2889 23.98 31.22C24.9158 31.2396 25.8483 31.1044 26.74 30.82C27.4077 30.6296 28.012 30.2636 28.49 29.76C28.8791 29.3194 29.0864 28.7476 29.07 28.16C29.0986 27.7192 28.9973 27.2796 28.7787 26.8957C28.5601 26.5118 28.2337 26.2004 27.84 26C27.1506 25.6492 26.4223 25.3806 25.67 25.2H25.49V23.4L25.79 23.46C26.22 23.57 26.64 23.69 27.03 23.81C27.7626 24.0235 28.4625 24.3364 29.11 24.74C29.6701 25.0982 30.1364 25.5851 30.47 26.16C30.8157 26.7628 30.9983 27.4452 31 28.14Z" fill="white"/>
</svg>
