<svg width="48" height="48" viewBox="0 0 48 48" fill="none" xmlns="http://www.w3.org/2000/svg">
<rect width="48" height="48" rx="24" fill="#252525"/>
<path fill-rule="evenodd" clip-rule="evenodd" d="M29.4092 23.7678C29.3062 23.8103 29.1959 23.832 29.0845 23.8316C28.9731 23.832 28.8627 23.8103 28.7598 23.7678C28.6568 23.7253 28.5632 23.6629 28.4845 23.5841C28.3267 23.4243 28.2383 23.2087 28.2383 22.9841C28.2383 22.7595 28.3267 22.544 28.4845 22.3841L31.1149 19.7639H18.2373C18.0125 19.7639 17.797 19.6746 17.6381 19.5157C17.4791 19.3568 17.3898 19.1412 17.3898 18.9165C17.3898 18.6917 17.4791 18.4762 17.6381 18.3172C17.797 18.1583 18.0125 18.069 18.2373 18.069H31.1152L28.4845 15.4485C28.3254 15.2894 28.236 15.0736 28.236 14.8485C28.236 14.6235 28.3254 14.4077 28.4845 14.2485C28.6436 14.0894 28.8594 14 29.0845 14C29.3095 14 29.5254 14.0894 29.6845 14.2485L33.7523 18.3163C33.7892 18.3537 33.8223 18.3941 33.8513 18.437C33.9475 18.5772 34 18.7441 34 18.9165C34 19.0989 33.9412 19.2752 33.8341 19.4202C33.8094 19.454 33.7821 19.4862 33.7523 19.5163L29.6845 23.5841C29.6058 23.6629 29.5122 23.7253 29.4092 23.7678ZM16.8847 29.9332H29.7627C29.9875 29.9332 30.203 29.8439 30.362 29.685C30.5209 29.5261 30.6102 29.3105 30.6102 29.0857C30.6102 28.861 30.5209 28.6454 30.362 28.4865C30.203 28.3276 29.9875 28.2383 29.7627 28.2383H16.8844L19.5152 25.6178C19.6743 25.4587 19.7637 25.2428 19.7637 25.0178C19.7637 24.7928 19.6743 24.5769 19.5152 24.4178C19.356 24.2587 19.1402 24.1693 18.9152 24.1693C18.6901 24.1693 18.4743 24.2587 18.3152 24.4178L14.2474 28.4856C14.1972 28.5364 14.1541 28.5928 14.1186 28.6534C14.0416 28.7832 14 28.9323 14 29.0857C14 29.2498 14.0476 29.409 14.1351 29.5448C14.1672 29.5952 14.2048 29.6424 14.2474 29.6856L18.3152 33.7534C18.3939 33.8322 18.4875 33.8946 18.5904 33.9371C18.6934 33.9796 18.8038 34.0012 18.9152 34.0008C19.0266 34.0012 19.1369 33.9796 19.2399 33.9371C19.3429 33.8946 19.4364 33.8322 19.5152 33.7534C19.6729 33.5935 19.7614 33.378 19.7614 33.1534C19.7614 32.9288 19.6729 32.7132 19.5152 32.5534L16.8847 29.9332Z" fill="white"/>
</svg>
