<svg width="48" height="48" viewBox="0 0 48 48" fill="none" xmlns="http://www.w3.org/2000/svg">
<rect width="48" height="48" rx="24" fill="#252525"/>
<path d="M30.6335 30.3385C29.7016 30.3385 28.8252 29.9735 28.1664 29.3109L24.6039 25.7271C24.3539 25.4748 23.9179 25.4755 23.6679 25.7271L20.0925 29.324C19.4335 29.9865 18.5571 30.3515 17.6252 30.3515H16.9232L21.435 34.8906C22.8441 36.3081 25.1287 36.3081 26.5378 34.8906L31.0627 30.3385H30.6335Z" fill="white"/>
<path d="M17.6253 17.6617C18.5571 17.6617 19.4335 18.0268 20.0924 18.6894L23.6678 22.287C23.9253 22.546 24.3458 22.5471 24.6039 22.2866L28.1663 18.7025C28.8253 18.0399 29.7017 17.6748 30.6335 17.6748H31.0626L26.5379 13.1228C25.1288 11.7052 22.8442 11.7052 21.435 13.1228L16.9234 17.6617H17.6253Z" fill="white"/>
<path d="M34.8051 21.44L32.0708 18.6892C32.0106 18.7134 31.9455 18.7286 31.8766 18.7286H30.6335C29.9907 18.7286 29.3616 18.9908 28.9075 19.448L25.345 23.0319C25.0118 23.3673 24.5738 23.5352 24.1361 23.5352C23.6981 23.5352 23.2604 23.3673 22.927 23.0322L19.3513 19.4349C18.8971 18.9778 18.268 18.7156 17.6252 18.7156H16.0966C16.0314 18.7156 15.9705 18.7001 15.9129 18.6783L13.1677 21.44C11.7586 22.8575 11.7586 25.1558 13.1677 26.5736L15.9128 29.3352C15.9703 29.3134 16.0314 29.2979 16.0966 29.2979H17.6252C18.268 29.2979 18.8971 29.0357 19.3513 28.5785L22.9267 24.9815C23.5729 24.332 24.6994 24.3316 25.345 24.9819L28.9075 28.5653C29.3616 29.0226 29.9907 29.2848 30.6335 29.2848H31.8766C31.9456 29.2848 32.0106 29.2999 32.0709 29.3242L34.8051 26.5736C36.2143 25.1558 36.2143 22.8575 34.8051 21.44Z" fill="white"/>
</svg>
