<svg width="48" height="48" viewBox="0 0 48 48" fill="none" xmlns="http://www.w3.org/2000/svg">
<rect width="48" height="48" rx="24" fill="#252525"/>
<path d="M14 31V16H14.7031V31H14ZM15.0491 30.9893V16H15.4062V30.9893H15.0491ZM16.1094 30.9893V16H16.4554V30.9893H16.1094ZM17.8616 30.9893V16H18.2076V30.9893H17.8616ZM19.2679 30.9893V16H19.9598V30.9893H19.2679ZM21.0201 30.9893V16H21.3661V30.9893H21.0201ZM21.7232 30.9893V16H22.0692V30.9893H21.7232ZM22.4263 30.9893V16H22.7723V30.9893H22.4263ZM23.8214 30.9893V16H24.5246V30.9893H23.8214ZM25.5737 30.9893V16H26.2768V30.9893H25.5737ZM26.9799 30.9893V16H27.683V30.9893H26.9799ZM28.3862 30.9893V16H29.0893V30.9893H28.3862ZM29.4353 30.9893V16H30.1384V30.9893H29.4353ZM31.1987 30.9893V16H32.2478V30.9893H31.1987ZM32.5938 30.9893V16H32.9509V30.9893H32.5938ZM33.2969 31V16H34V31H33.2969Z" fill="white"/>
</svg>
