<svg width="19" height="15" viewBox="0 0 19 15" fill="none" xmlns="http://www.w3.org/2000/svg">
<path fill-rule="evenodd" clip-rule="evenodd" d="M2.75 3.75C3.16421 3.75 3.5 4.08579 3.5 4.5V13.5H15.5V4.5C15.5 4.08579 15.8358 3.75 16.25 3.75C16.6642 3.75 17 4.08579 17 4.5V14.25C17 14.6642 16.6642 15 16.25 15H2.75C2.33579 15 2 14.6642 2 14.25V4.5C2 4.08579 2.33579 3.75 2.75 3.75Z" fill="white"/>
<path fill-rule="evenodd" clip-rule="evenodd" d="M0.5 0.75C0.5 0.335786 0.835786 0 1.25 0H17.75C18.1642 0 18.5 0.335786 18.5 0.75V4.5C18.5 4.91421 18.1642 5.25 17.75 5.25H1.25C0.835786 5.25 0.5 4.91421 0.5 4.5V0.75ZM2 1.5V3.75H17V1.5H2Z" fill="white"/>
<path fill-rule="evenodd" clip-rule="evenodd" d="M7.25 7.5C7.25 7.08579 7.58579 6.75 8 6.75H11C11.4142 6.75 11.75 7.08579 11.75 7.5C11.75 7.91421 11.4142 8.25 11 8.25H8C7.58579 8.25 7.25 7.91421 7.25 7.5Z" fill="white"/>
</svg>
