<svg width="17" height="19" viewBox="0 0 17 19" fill="none" xmlns="http://www.w3.org/2000/svg">
<path fill-rule="evenodd" clip-rule="evenodd" d="M8.16693 2.2588C8.1667 2.25892 8.16648 2.25903 8.16626 2.25914L2.16792 5.25831L2.16626 5.25914C2.0413 5.32123 1.93614 5.41695 1.86261 5.53553C1.7891 5.65407 1.75011 5.79076 1.75001 5.93024C1.75001 5.9302 1.75001 5.93029 1.75001 5.93024V13.0752C1.74903 13.215 1.78712 13.3522 1.86001 13.4715C1.93278 13.5906 2.03732 13.687 2.16187 13.7499C2.16167 13.7498 2.16208 13.75 2.16187 13.7499L8.16042 16.7492C8.26462 16.8013 8.37974 16.8286 8.49626 16.8286C8.61277 16.8286 8.72768 16.8014 8.83188 16.7493L14.8321 13.7492L14.8338 13.7483C14.9587 13.6862 15.0639 13.5905 15.1374 13.472C15.2109 13.3534 15.2499 13.2166 15.25 13.0771V5.93039C15.2499 5.79086 15.2109 5.65411 15.1374 5.53553C15.0639 5.41695 14.9587 5.32123 14.8338 5.25914L14.8321 5.25831L8.83376 2.25914C8.83353 2.25903 8.83331 2.25892 8.83308 2.2588C8.72955 2.20749 8.61556 2.18079 8.50001 2.18079C8.38445 2.18079 8.27046 2.20749 8.16693 2.2588ZM9.16751 1.58749L9.50126 0.915842C9.19013 0.76124 8.84743 0.680786 8.50001 0.680786C8.15259 0.680786 7.80988 0.76124 7.49876 0.915842L7.4971 0.91667L1.49876 3.91584C1.49845 3.916 1.49814 3.91615 1.49783 3.9163C1.12337 4.10259 0.808241 4.38956 0.58782 4.74502C0.367217 5.10076 0.250228 5.511 0.250006 5.92959L0.250006 13.0676C0.247628 13.486 0.361924 13.8967 0.580085 14.2537C0.798746 14.6115 1.11304 14.9011 1.48752 15.0898L1.4896 15.0908L7.48938 18.0907C7.80197 18.2471 8.14671 18.3286 8.49626 18.3286C8.84572 18.3286 9.19038 18.2472 9.50292 18.0908C9.50299 18.0908 9.50285 18.0908 9.50292 18.0908L15.5013 15.0916C15.5015 15.0915 15.5018 15.0914 15.502 15.0913C15.8765 14.905 16.1917 14.618 16.4122 14.2625C16.6328 13.9067 16.7498 13.4965 16.75 13.0779V5.92999C16.7498 5.5114 16.6328 5.10076 16.4122 4.74502C16.1918 4.38957 15.8767 4.10261 15.5022 3.91632C15.5019 3.91616 15.5016 3.916 15.5013 3.91584L9.50292 0.91667L9.16751 1.58749Z" fill="white"/>
<path fill-rule="evenodd" clip-rule="evenodd" d="M0.569185 4.78458C0.754427 4.4141 1.20493 4.26393 1.57542 4.44917L8.50001 7.91147L15.4246 4.44917C15.7951 4.26393 16.2456 4.4141 16.4308 4.78458C16.6161 5.15506 16.4659 5.60557 16.0954 5.79081L8.83542 9.42081C8.62427 9.52638 8.37574 9.52638 8.1646 9.42081L0.904595 5.79081C0.534112 5.60557 0.383943 5.15506 0.569185 4.78458Z" fill="white"/>
<path fill-rule="evenodd" clip-rule="evenodd" d="M8.50001 7.99999C8.91422 7.99999 9.25001 8.33578 9.25001 8.74999V17.57C9.25001 17.9842 8.91422 18.32 8.50001 18.32C8.08579 18.32 7.75001 17.9842 7.75001 17.57V8.74999C7.75001 8.33578 8.08579 7.99999 8.50001 7.99999Z" fill="white"/>
</svg>
