<svg width="19" height="19" viewBox="0 0 19 19" fill="none" xmlns="http://www.w3.org/2000/svg">
<path fill-rule="evenodd" clip-rule="evenodd" d="M5 4.25C4.58579 4.25 4.25 4.58579 4.25 5V14C4.25 14.4142 4.58579 14.75 5 14.75H14C14.4142 14.75 14.75 14.4142 14.75 14V5C14.75 4.58579 14.4142 4.25 14 4.25H5ZM2.75 5C2.75 3.75736 3.75736 2.75 5 2.75H14C15.2426 2.75 16.25 3.75736 16.25 5V14C16.25 15.2426 15.2426 16.25 14 16.25H5C3.75736 16.25 2.75 15.2426 2.75 14V5Z" fill="white"/>
<path fill-rule="evenodd" clip-rule="evenodd" d="M6.5 7.25C6.5 6.83579 6.83579 6.5 7.25 6.5H11.75C12.1642 6.5 12.5 6.83579 12.5 7.25V11.75C12.5 12.1642 12.1642 12.5 11.75 12.5H7.25C6.83579 12.5 6.5 12.1642 6.5 11.75V7.25ZM8 8V11H11V8H8Z" fill="white"/>
<path fill-rule="evenodd" clip-rule="evenodd" d="M7.25 0.5C7.66421 0.5 8 0.835786 8 1.25V3.5C8 3.91421 7.66421 4.25 7.25 4.25C6.83579 4.25 6.5 3.91421 6.5 3.5V1.25C6.5 0.835786 6.83579 0.5 7.25 0.5Z" fill="white"/>
<path fill-rule="evenodd" clip-rule="evenodd" d="M11.75 0.5C12.1642 0.5 12.5 0.835786 12.5 1.25V3.5C12.5 3.91421 12.1642 4.25 11.75 4.25C11.3358 4.25 11 3.91421 11 3.5V1.25C11 0.835786 11.3358 0.5 11.75 0.5Z" fill="white"/>
<path fill-rule="evenodd" clip-rule="evenodd" d="M7.25 14.75C7.66421 14.75 8 15.0858 8 15.5V17.75C8 18.1642 7.66421 18.5 7.25 18.5C6.83579 18.5 6.5 18.1642 6.5 17.75V15.5C6.5 15.0858 6.83579 14.75 7.25 14.75Z" fill="white"/>
<path fill-rule="evenodd" clip-rule="evenodd" d="M11.75 14.75C12.1642 14.75 12.5 15.0858 12.5 15.5V17.75C12.5 18.1642 12.1642 18.5 11.75 18.5C11.3358 18.5 11 18.1642 11 17.75V15.5C11 15.0858 11.3358 14.75 11.75 14.75Z" fill="white"/>
<path fill-rule="evenodd" clip-rule="evenodd" d="M14.75 7.25C14.75 6.83579 15.0858 6.5 15.5 6.5H17.75C18.1642 6.5 18.5 6.83579 18.5 7.25C18.5 7.66421 18.1642 8 17.75 8H15.5C15.0858 8 14.75 7.66421 14.75 7.25Z" fill="white"/>
<path fill-rule="evenodd" clip-rule="evenodd" d="M14.75 11C14.75 10.5858 15.0858 10.25 15.5 10.25H17.75C18.1642 10.25 18.5 10.5858 18.5 11C18.5 11.4142 18.1642 11.75 17.75 11.75H15.5C15.0858 11.75 14.75 11.4142 14.75 11Z" fill="white"/>
<path fill-rule="evenodd" clip-rule="evenodd" d="M0.5 7.25C0.5 6.83579 0.835786 6.5 1.25 6.5H3.5C3.91421 6.5 4.25 6.83579 4.25 7.25C4.25 7.66421 3.91421 8 3.5 8H1.25C0.835786 8 0.5 7.66421 0.5 7.25Z" fill="white"/>
</svg>
