<svg width="15" height="17" viewBox="0 0 15 17" fill="none" xmlns="http://www.w3.org/2000/svg">
<path fill-rule="evenodd" clip-rule="evenodd" d="M7.03955 0.407986C7.31038 0.197338 7.68962 0.197338 7.96045 0.407986L14.7105 5.65799C14.8931 5.80008 15 6.01856 15 6.25V14.5C15 15.0967 14.7629 15.669 14.341 16.091C13.919 16.5129 13.3467 16.75 12.75 16.75H2.25C1.65326 16.75 1.08097 16.5129 0.65901 16.091C0.237053 15.669 0 15.0967 0 14.5V6.25C0 6.01856 0.106855 5.80008 0.289545 5.65799L7.03955 0.407986ZM1.5 6.61681V14.5C1.5 14.6989 1.57902 14.8897 1.71967 15.0303C1.86032 15.171 2.05109 15.25 2.25 15.25H12.75C12.9489 15.25 13.1397 15.171 13.2803 15.0303C13.421 14.8897 13.5 14.6989 13.5 14.5V6.61681L7.5 1.95015L1.5 6.61681Z" fill="white"/>
<path fill-rule="evenodd" clip-rule="evenodd" d="M4.5 8.5C4.5 8.08579 4.83579 7.75 5.25 7.75H9.75C10.1642 7.75 10.5 8.08579 10.5 8.5V16C10.5 16.4142 10.1642 16.75 9.75 16.75C9.33579 16.75 9 16.4142 9 16V9.25H6V16C6 16.4142 5.66421 16.75 5.25 16.75C4.83579 16.75 4.5 16.4142 4.5 16V8.5Z" fill="white"/>
</svg>
